HIERARCHY
ROOT Hips
{
	OFFSET 0.000000 0.000000 0.000000
	CHANNELS 6 Xposition Yposition Zposition Xrotation Yrotation Zrotation
	JOINT LeftUpLeg_virtual
	{
		OFFSET 0.000000 0.000000 0.000000
		CHANNELS 3 Xrotation Yrotation Zrotation
		JOINT LeftUpLeg
		{
			OFFSET 10.205400 -3.823500 0.155100
			CHANNELS 3 Xrotation Yrotation Zrotation
			JOINT LeftLeg
			{
				OFFSET 0.708757 -12.982077 0.567790
				CHANNELS 3 Xrotation Yrotation Zrotation
				JOINT LeftFoot
				{
					OFFSET -0.708756 -10.717838 -2.184338
					CHANNELS 3 Xrotation Yrotation Zrotation
					JOINT LeftToeBase
					{
						OFFSET 0.108149 -7.191104 7.560241
						CHANNELS 3 Xrotation Yrotation Zrotation
						JOINT LeftToe_End
						{
							OFFSET 0.070230 0.081724 4.490308
							CHANNELS 3 Xrotation Yrotation Zrotation
							End Site
							{
								OFFSET 0 0 0
							}
						}
					}
				}
			}
		}
	}
	JOINT RightUpLeg_virtual
	{
		OFFSET 0.000000 0.000000 0.000000
		CHANNELS 3 Xrotation Yrotation Zrotation
		JOINT RightUpLeg
		{
			OFFSET -10.205400 -3.823500 0.005500
			CHANNELS 3 Xrotation Yrotation Zrotation
			JOINT RightLeg
			{
				OFFSET -0.708756 -12.982134 0.610632
				CHANNELS 3 Xrotation Yrotation Zrotation
				JOINT RightFoot
				{
					OFFSET 0.708754 -10.717769 -1.945823
					CHANNELS 3 Xrotation Yrotation Zrotation
					JOINT RightToeBase
					{
						OFFSET -0.108140 -7.191069 7.372968
						CHANNELS 3 Xrotation Yrotation Zrotation
						JOINT RightToe_End
						{
							OFFSET -0.070227 0.081735 4.479403
							CHANNELS 3 Xrotation Yrotation Zrotation
							End Site
							{
								OFFSET 0 0 0
							}
						}
					}
				}
			}
		}
	}
	JOINT Spine_virtual
	{
		OFFSET 0.000000 0.000000 0.000000
		CHANNELS 3 Xrotation Yrotation Zrotation
		JOINT Spine
		{
			OFFSET 0.000000 6.876099 0.125700
			CHANNELS 3 Xrotation Yrotation Zrotation
			JOINT Spine1
			{
				OFFSET 0.000000 5.730043 0.104720
				CHANNELS 3 Xrotation Yrotation Zrotation
				JOINT Spine1_split
				{
					OFFSET 0.000000 5.730043 0.104720
					CHANNELS 3 Xrotation Yrotation Zrotation
					JOINT Spine2
					{
						OFFSET 0.000000 5.730043 0.104720
						CHANNELS 3 Xrotation Yrotation Zrotation
						JOINT Neck_virtual
						{
							OFFSET 0.000000 0.000000 0.000000
							CHANNELS 3 Xrotation Yrotation Zrotation
							JOINT Neck
							{
								OFFSET 0.000000 10.314075 0.188496
								CHANNELS 3 Xrotation Yrotation Zrotation
								JOINT Head
								{
									OFFSET 0.000000 7.643700 -2.377400
									CHANNELS 3 Xrotation Yrotation Zrotation
									JOINT HeadTop_End
									{
										OFFSET 0.000000 43.788605 -13.619600
										CHANNELS 3 Xrotation Yrotation Zrotation
										End Site
										{
											OFFSET 0 0 0
										}
									}
								}
							}
						}
						JOINT LeftShoulder_virtual
						{
							OFFSET 0.000000 0.000000 0.000000
							CHANNELS 3 Xrotation Yrotation Zrotation
							JOINT LeftShoulder
							{
								OFFSET 2.196100 4.412489 0.087492
								CHANNELS 3 Xrotation Yrotation Zrotation
								JOINT LeftShoulder_split
								{
									OFFSET 2.196100 4.412489 0.087492
									CHANNELS 3 Xrotation Yrotation Zrotation
									JOINT LeftArm
									{
										OFFSET 8.771219 -2.981674 -0.026999
										CHANNELS 3 Xrotation Yrotation Zrotation
										JOINT LeftForeArm
										{
											OFFSET 8.512804 0.000000 -0.000000
											CHANNELS 3 Xrotation Yrotation Zrotation
											JOINT LeftHand
											{
												OFFSET 18.484802 0.000000 -0.000000
												CHANNELS 3 Xrotation Yrotation Zrotation
												End Site
												{
													OFFSET 0 0 0
												}
											}
										}
									}
								}
							}
						}
						JOINT RightShoulder_virtual
						{
							OFFSET 0.000000 0.000000 0.000000
							CHANNELS 3 Xrotation Yrotation Zrotation
							JOINT RightShoulder
							{
								OFFSET -2.196100 4.412496 0.070690
								CHANNELS 3 Xrotation Yrotation Zrotation
								JOINT RightShoulder_split
								{
									OFFSET -2.196100 4.412496 0.070690
									CHANNELS 3 Xrotation Yrotation Zrotation
									JOINT RightArm
									{
										OFFSET -8.771282 -2.981682 -0.094208
										CHANNELS 3 Xrotation Yrotation Zrotation
										JOINT RightForeArm
										{
											OFFSET -8.494598 0.000000 0.000000
											CHANNELS 3 Xrotation Yrotation Zrotation
											JOINT RightHand
											{
												OFFSET -18.483803 0.000000 0.000001
												CHANNELS 3 Xrotation Yrotation Zrotation
												End Site
												{
													OFFSET 0 0 0
												}
											}
										}
									}
								}
							}
						}
					}
				}
			}
		}
	}
}
MOTION
Frames: 12
Frame Time: 0.03333333
0.667032 34.116928 -0.886947 0.000000 0.000000 0.000000 -3.473853 4.236508 -2.239955 -7.314804 8.221275 14.592226 22.717172 -7.098718 -0.713091 -13.704968 3.276540 -8.142033 0.410946 0.477799 -1.110735 0.000000 0.000000 0.000000 -3.329940 5.369657 -2.439023 -7.369266 -4.790512 -3.652994 15.998272 5.097411 1.937367 -7.334624 0.685093 -1.007777 1.067558 -0.310676 0.587693 0.000000 0.000000 0.000000 -3.945063 6.547499 -2.347199 9.681858 -0.863256 1.457025 1.867469 0.099005 -0.171040 0.176507 -1.162341 0.853308 0.000000 0.000000 0.000000 -4.115562 -0.111703 0.417434 0.082566 -0.595399 0.369838 4.897651 -1.681283 -1.806272 0.000000 0.000000 0.000000 -4.116824 -0.309720 0.420849 0.387200 -3.146037 -6.213855 -2.517733 -1.324824 0.347935 6.757423 -5.344625 -73.662190 5.982886 -8.436583 2.640720 0.000000 0.000000 0.000000 -4.645202 -0.506650 0.471066 0.978865 7.452349 5.852685 -4.566986 -1.375617 0.233283 5.113478 12.941100 73.842036 17.816721 18.694313 -2.929628 0.000000 0.000000 0.000000 
0.661630 34.145515 -0.826814 0.000000 0.000000 0.000000 -3.337874 4.081010 -2.301363 -7.255630 8.201934 14.778062 22.360485 -6.914791 -0.853006 -14.061120 3.131656 -7.903228 0.668720 0.461352 -1.042903 0.000000 0.000000 0.000000 -3.267740 5.084436 -2.469192 -7.324595 -4.658610 -3.509754 16.184932 5.182146 1.876016 -7.410357 0.818288 -1.220058 1.391145 -0.337260 0.669903 0.000000 0.000000 0.000000 -3.628006 6.466328 -2.348065 9.791162 -0.797311 1.497414 1.884325 0.060710 -0.194591 0.451149 -1.531182 0.831133 0.000000 0.000000 0.000000 -4.114894 -0.120478 0.394983 0.093857 -0.516159 0.323742 5.083822 -1.822607 -1.682701 0.000000 0.000000 0.000000 -4.109876 -0.341714 0.400292 0.444431 -3.385121 -6.313550 -2.360490 -1.313742 0.528283 6.473600 -5.252488 -73.816853 5.958624 -8.609060 2.585078 0.000000 0.000000 0.000000 -4.638097 -0.515651 0.487549 1.027292 7.445500 5.999012 -4.498213 -1.364363 0.104098 5.295749 12.798753 73.792039 17.794955 18.863818 -2.944514 0.000000 0.000000 0.000000 
0.642780 34.150612 -0.761988 0.000000 0.000000 0.000000 -3.226550 3.787242 -2.376159 -7.202867 8.266610 15.065632 22.003186 -6.576548 -0.773358 -14.525353 2.921751 -7.773552 0.894160 0.415237 -0.883589 0.000000 0.000000 0.000000 -3.169720 4.767122 -2.538554 -7.557923 -4.508884 -3.340360 16.540560 5.355936 1.875045 -7.428224 1.013442 -1.479331 1.604197 -0.338481 0.649583 0.000000 0.000000 0.000000 -3.347598 6.176702 -2.343695 10.114078 -0.724563 1.573292 1.812747 0.015113 -0.207890 0.577029 -1.756999 0.709325 0.000000 0.000000 0.000000 -4.139298 -0.147580 0.385377 0.152700 -0.365868 0.294782 5.169092 -1.905104 -1.626227 0.000000 0.000000 0.000000 -4.143063 -0.392674 0.399129 0.500773 -3.721169 -6.460347 -2.172438 -1.204497 0.759899 6.232510 -5.124536 -73.845867 6.041027 -8.705132 2.446606 0.000000 0.000000 0.000000 -4.681473 -0.550468 0.504177 1.062497 7.338848 6.311727 -4.457374 -1.274620 -0.098731 5.700984 13.045999 73.393292 17.681263 19.125175 -2.905046 0.000000 0.000000 0.000000 
0.610781 34.127258 -0.691866 0.000000 0.000000 0.000000 -3.134021 3.445572 -2.427470 -7.077032 8.371733 15.368394 21.762304 -6.184478 -0.550512 -14.960459 2.647391 -7.871013 0.937132 0.345315 -0.632965 0.000000 0.000000 0.000000 -3.053921 4.413857 -2.595494 -8.072233 -4.418458 -3.202485 17.034002 5.607116 1.963464 -7.311422 1.241457 -1.715868 1.590641 -0.318817 0.536996 0.000000 0.000000 0.000000 -3.133946 5.669789 -2.305341 10.561134 -0.664074 1.631055 1.646281 -0.035582 -0.191579 0.509131 -1.799928 0.579276 0.000000 0.000000 0.000000 -4.171020 -0.187644 0.401470 0.265044 -0.164174 0.276512 5.126032 -1.941748 -1.621711 0.000000 0.000000 0.000000 -4.208150 -0.456008 0.430866 0.558744 -4.059176 -6.628932 -2.158672 -1.020384 0.891490 6.077596 -4.983270 -73.719919 6.218677 -8.698126 2.244425 0.000000 0.000000 0.000000 -4.776073 -0.605677 0.534559 1.090705 7.133967 6.732530 -4.457722 -1.179095 -0.375744 6.254611 13.644521 72.709891 17.476842 19.460992 -2.818714 0.000000 0.000000 0.000000 
0.562655 34.093830 -0.603882 0.000000 0.000000 0.000000 -3.035822 3.051301 -2.421966 -6.735403 8.492515 15.599549 21.620771 -5.727690 -0.298461 -15.325032 2.340509 -8.084000 0.780762 0.270379 -0.360305 0.000000 0.000000 0.000000 -2.922121 3.976342 -2.600156 -8.855567 -4.441292 -3.168407 17.600547 5.927291 2.135045 -6.960851 1.475981 -1.841747 1.350395 -0.284926 0.370964 0.000000 0.000000 0.000000 -2.969290 4.952277 -2.216671 11.005169 -0.634389 1.630199 1.409441 -0.090609 -0.131556 0.400470 -1.701277 0.518773 0.000000 0.000000 0.000000 -4.194927 -0.238331 0.457933 0.412804 0.076909 0.281344 4.950410 -1.941970 -1.657837 0.000000 0.000000 0.000000 -4.291276 -0.524140 0.506555 0.614278 -4.333860 -6.824360 -2.326217 -0.811477 0.867810 5.994198 -4.831411 -73.426043 6.461804 -8.591700 1.998784 0.000000 0.000000 0.000000 -4.896218 -0.675243 0.599221 1.131729 6.828453 7.178166 -4.438249 -1.144067 -0.697044 6.883209 14.517711 71.826570 17.200228 19.816103 -2.700921 0.000000 0.000000 0.000000 
0.495138 34.064705 -0.510226 0.000000 0.000000 0.000000 -2.916995 2.561268 -2.341758 -6.179549 8.561138 15.724694 21.389735 -5.168554 -0.112459 -15.631141 2.094999 -8.314868 0.663153 0.196883 -0.175650 0.000000 0.000000 0.000000 -2.758412 3.411709 -2.530886 -9.837814 -4.567285 -3.222436 18.186873 6.312496 2.363851 -6.452660 1.699919 -1.876424 1.070364 -0.238325 0.207433 0.000000 0.000000 0.000000 -2.814489 4.054554 -2.117930 11.314336 -0.632566 1.564583 1.138409 -0.154987 -0.019375 0.294965 -1.483098 0.508668 0.000000 0.000000 0.000000 -4.199698 -0.297503 0.560609 0.550177 0.351426 0.326007 4.627004 -1.926629 -1.708612 0.000000 0.000000 0.000000 -4.382805 -0.594745 0.630566 0.657329 -4.506031 -7.035851 -2.564582 -0.592739 0.719326 5.956093 -4.646316 -72.981637 6.738276 -8.358659 1.720699 0.000000 0.000000 0.000000 -5.007526 -0.750070 0.707313 1.202644 6.451295 7.575940 -4.421913 -1.166811 -0.987003 7.516515 15.532526 70.854101 16.886570 20.115109 -2.573102 0.000000 0.000000 0.000000 
0.417380 34.039009 -0.434254 0.000000 0.000000 0.000000 -2.769406 1.954623 -2.217922 -5.379299 8.510311 15.728145 20.824053 -4.388864 -0.029446 -15.948850 2.003848 -8.567173 0.741044 0.129513 -0.139835 0.000000 0.000000 0.000000 -2.535458 2.684091 -2.409725 -10.914958 -4.705233 -3.283394 18.788539 6.730438 2.571645 -6.008686 1.898986 -1.994344 1.014099 -0.174890 0.105374 0.000000 0.000000 0.000000 -2.624777 3.010957 -2.042610 11.432021 -0.660705 1.440454 0.888136 -0.231020 0.127847 0.314895 -1.215992 0.556214 0.000000 0.000000 0.000000 -4.176654 -0.364039 0.699875 0.643824 0.654204 0.421566 4.224676 -1.875262 -1.758429 0.000000 0.000000 0.000000 -4.467853 -0.673614 0.786133 0.676725 -4.584843 -7.259912 -2.776977 -0.423361 0.534463 5.974230 -4.363798 -72.443295 7.006788 -8.013657 1.415356 0.000000 0.000000 0.000000 -5.098632 -0.829105 0.860286 1.307096 6.030309 7.931721 -4.360801 -1.197403 -1.202830 8.089214 16.581196 69.893681 16.571137 20.285559 -2.458370 0.000000 0.000000 0.000000 
0.325566 34.023354 -0.344008 0.000000 0.000000 0.000000 -2.569237 1.209249 -2.092136 -4.348730 8.270430 15.675083 19.873989 -3.385245 -0.057002 -16.177730 2.100569 -9.008678 0.908438 0.077106 -0.198944 0.000000 0.000000 0.000000 -2.243552 1.832290 -2.281232 -11.957073 -4.749318 -3.233034 19.345985 7.139203 2.697673 -5.795427 2.036114 -2.286155 1.190389 -0.096762 0.072448 0.000000 0.000000 0.000000 -2.398644 1.835243 -2.027528 11.364704 -0.709469 1.300073 0.694999 -0.327835 0.285484 0.415632 -1.016353 0.582801 0.000000 0.000000 0.000000 -4.143658 -0.441723 0.845599 0.683132 0.984608 0.587744 3.827047 -1.716415 -1.800804 0.000000 0.000000 0.000000 -4.524415 -0.764751 0.950863 0.673457 -4.589851 -7.452858 -2.899902 -0.372214 0.412461 6.023461 -3.985048 -71.896593 7.234715 -7.629670 1.077173 0.000000 0.000000 0.000000 -5.157594 -0.916307 1.037485 1.424376 5.596535 8.262157 -4.293369 -1.156458 -1.309483 8.565696 17.553031 69.027743 16.277770 20.310589 -2.371850 0.000000 0.000000 0.000000 
0.199762 34.002308 -0.219071 0.000000 0.000000 0.000000 -2.319578 0.309825 -1.992803 -3.161656 7.865140 15.702443 18.742041 -2.211795 -0.137274 -16.311988 2.370836 -9.893278 1.021111 0.026272 -0.254436 0.000000 0.000000 0.000000 -1.877808 0.802337 -2.192517 -12.895791 -4.633431 -2.986390 19.885223 7.551994 2.748555 -5.826697 2.112068 -2.710606 1.391377 -0.007269 0.083292 0.000000 0.000000 0.000000 -2.171492 0.503866 -2.086081 11.206571 -0.763431 1.206953 0.568326 -0.444321 0.429737 0.508067 -0.848091 0.564647 0.000000 0.000000 0.000000 -4.127134 -0.536106 0.962776 0.680252 1.346336 0.822866 3.510006 -1.425663 -1.827633 0.000000 0.000000 0.000000 -4.538755 -0.872014 1.102954 0.645356 -4.544299 -7.580797 -2.931750 -0.456770 0.376817 6.128242 -3.587430 -71.390380 7.387574 -7.277982 0.723030 0.000000 0.000000 0.000000 -5.186561 -1.015942 1.198126 1.532079 5.181133 8.625814 -4.274848 -1.000440 -1.330862 8.926168 18.339225 68.300287 16.007093 20.215275 -2.310385 0.000000 0.000000 0.000000 
0.057944 33.961441 -0.067559 0.000000 0.000000 0.000000 -2.065719 -0.804662 -1.917804 -1.820926 7.333813 15.810974 17.789670 -0.909230 -0.145647 -16.534980 2.784519 -11.321489 0.964944 -0.024109 -0.202187 0.000000 0.000000 0.000000 -1.503865 -0.384522 -2.149256 -13.776130 -4.352932 -2.516654 20.542928 7.981656 2.747847 -5.973337 2.149818 -3.198863 1.419910 0.090268 0.114829 0.000000 0.000000 0.000000 -1.982306 -0.986535 -2.193992 11.120557 -0.822391 1.197585 0.474035 -0.580514 0.533890 0.612197 -0.707753 0.555344 0.000000 0.000000 0.000000 -4.131656 -0.650393 1.027751 0.661149 1.755007 1.114991 3.322611 -0.992664 -1.826087 0.000000 0.000000 0.000000 -4.504602 -0.998633 1.216032 0.605169 -4.466553 -7.665855 -2.862184 -0.636281 0.430084 6.264292 -3.250763 -70.968848 7.421515 -7.002751 0.370865 0.000000 0.000000 0.000000 -5.192981 -1.136007 1.305245 1.611064 4.788197 9.073513 -4.221136 -0.762669 -1.307122 9.150934 18.895717 67.688575 15.747133 20.042890 -2.260661 0.000000 0.000000 0.000000 
-0.111793 33.900444 0.101490 0.000000 0.000000 0.000000 -1.897377 -2.184245 -1.855571 -0.553962 6.742519 16.012632 17.462862 0.443586 0.010402 -17.052416 3.288578 -13.260375 0.708393 -0.077968 -0.012948 0.000000 0.000000 0.000000 -1.199777 -1.806917 -2.117628 -14.656104 -3.925886 -1.824231 21.341963 8.443503 2.783751 -6.118378 2.173096 -3.698141 1.240044 0.192302 0.153624 0.000000 0.000000 0.000000 -1.878585 -2.578755 -2.346496 11.214852 -0.879192 1.286959 0.375672 -0.732642 0.585389 0.660261 -0.584026 0.508397 0.000000 0.000000 0.000000 -4.154552 -0.783055 1.025847 0.652731 2.216283 1.451093 3.228453 -0.420062 -1.815434 0.000000 0.000000 0.000000 -4.426913 -1.140319 1.269135 0.564704 -4.373080 -7.716334 -2.738428 -0.807403 0.516063 6.385093 -2.995472 -70.616055 7.332527 -6.799024 0.029416 0.000000 0.000000 0.000000 -5.178552 -1.273464 1.325704 1.641160 4.437315 9.600930 -4.127796 -0.502884 -1.275519 9.266505 19.248346 67.149352 15.491552 19.906641 -2.216811 0.000000 0.000000 0.000000 
-0.302082 33.822723 0.266219 0.000000 0.000000 0.000000 -1.845872 -3.760600 -1.804988 0.428677 6.171055 16.244925 18.118170 1.749042 0.345820 -17.709714 3.846499 -15.680810 0.146998 -0.118529 0.292684 0.000000 0.000000 0.000000 -1.026463 -3.467650 -2.099662 -15.547085 -3.366130 -0.915761 22.208963 8.932048 2.888901 -6.265921 2.214030 -4.262664 1.004120 0.301442 0.194203 0.000000 0.000000 0.000000 -1.852554 -4.233607 -2.488597 11.492860 -0.927727 1.469428 0.251278 -0.888210 0.583840 0.613498 -0.474370 0.498344 0.000000 0.000000 0.000000 -4.188352 -0.927246 0.959871 0.676837 2.727380 1.807022 3.160637 0.274549 -1.836854 0.000000 0.000000 0.000000 -4.320133 -1.291727 1.255189 0.523774 -4.271664 -7.750256 -2.614980 -0.876721 0.604304 6.500619 -2.757955 -70.245320 7.129864 -6.711277 -0.290087 0.000000 0.000000 0.000000 -5.155908 -1.422826 1.262159 1.630211 4.127428 10.181491 -4.005243 -0.315158 -1.284660 9.359360 19.526871 66.590526 15.235466 19.847874 -2.164827 0.000000 0.000000 0.000000 
